<svg xmlns="http://www.w3.org/2000/svg" width="116.577" height="18.44" viewBox="0 0 116.577 18.44">
  <g id="组_79" data-name="组 79" transform="translate(-697.36 -520.003)">
    <path id="路径_213" data-name="路径 213" d="M736.676,538.443h7.444l-3.722-3.65Z" fill="#f4e094"/>
    <path id="路径_214" data-name="路径 214" d="M740.509,528.665l-.04-.04-9.818,9.818h2.664l7.194-7.194,7.194,7.194h2.664l-9.818-9.818Z" fill="#f4e094"/>
    <path id="路径_215" data-name="路径 215" d="M766.951,538.443H774.4l-3.722-3.65Z" fill="#f4e094"/>
    <path id="路径_216" data-name="路径 216" d="M770.784,528.665l-.04-.04-9.818,9.818h2.664l7.194-7.194,7.194,7.194h2.664l-9.818-9.818Z" fill="#f4e094"/>
    <path id="路径_217" data-name="路径 217" d="M740.511,524.753l13.69,13.69h2.9l13.69-13.69,13.69,13.69h4.75L770.786,520l-15.138,15.138L740.511,520l-18.44,18.44h4.75Z" fill="#f4e094"/>
    <path id="路径_218" data-name="路径 218" d="M697.36,538.443h29.461l-1.395-3.355Z" fill="#f4e094"/>
    <path id="路径_219" data-name="路径 219" d="M813.937,538.443H784.476l1.395-3.355Z" fill="#f4e094"/>
  </g>
</svg>
