<?xml version="1.0" encoding="utf-8"?>
<svg width="294px" height="294px" viewBox="0 0 294 294" version="1.1" xmlns:xlink="http://www.w3.org/1999/xlink" xmlns="http://www.w3.org/2000/svg">
  <desc>Created with Lunacy</desc>
  <g id="Group-21" transform="translate(2.5 2.5)">
    <path d="M48.5557 100.987C46.8313 66.4491 32.7817 32.4119 6.40494 6.03333C4.31701 3.9452 2.18114 1.93365 0 0" transform="translate(240.4443 36.29932)" id="Stroke-1" fill="none" stroke="#5ACED6" stroke-width="5" stroke-linecap="round" />
    <path d="M0 44.211C6.12145 39.7634 11.974 34.78 17.494 29.2603C26.4613 20.2934 34.0143 10.4474 40.1519 0" transform="translate(229.239 217.7969)" id="Stroke-3" fill="none" stroke="#7CE3EA" stroke-width="5" stroke-linecap="round" />
    <path d="M0 0C2.48267 33.3878 16.4968 66.0797 42.0425 91.6102C71.8205 121.37 111.333 135.471 150.336 133.913" transform="translate(0 154.9712)" id="Stroke-5" fill="none" stroke="#7CE3EA" stroke-width="5" stroke-linecap="round" />
    <path d="M48.5557 0C26.7154 14.5272 9.5948 35.6315 0 60.4992" transform="translate(25.21167 38.16113)" id="Stroke-7" fill="none" stroke="#5ACED6" stroke-width="5" stroke-linecap="round" />
    <path d="M93.3764 33.0419C70.7346 12.5074 40.708 0 7.76735 0C5.15909 0 2.56953 0.078284 0 0.232845" transform="translate(136.3296 17.21924)" id="Stroke-9" fill="none" stroke="#5ACED6" stroke-width="1.658" stroke-linecap="round" />
    <path d="M2.58407 52.1224C3.64963 45.5926 4.20193 38.8972 4.20193 32.0767C4.20193 20.9962 2.74236 10.247 0 0" transform="translate(267.5234 112.6216)" id="Stroke-11" fill="none" stroke="#5ACED6" stroke-width="1.658" stroke-linecap="round" />
    <path d="M0 10.1465C22.335 29.3461 51.4144 40.9533 83.2108 40.9533C120.275 40.9533 153.645 25.1822 176.948 0" transform="translate(61.16162 230.8276)" id="Stroke-13" fill="none" stroke="#7CE3EA" stroke-width="1.658" stroke-linecap="round" />
    <path d="M0 0C0 23.0552 6.11836 44.6722 16.8078 63.2915" transform="translate(16.80786 144.7329)" id="Stroke-15" fill="none" stroke="#7CE3EA" stroke-width="1.658" stroke-linecap="round" />
    <path d="M87.307 2.84934C58.1749 -2.96481 27.5734 0.119125 0 12.0998" transform="translate(85.43945 0)" id="Stroke-17" fill="none" stroke="#5ACED6" stroke-width="5" stroke-linecap="round" />
    <path d="M37.3506 0C18.775 18.5909 6.32477 40.9905 0 64.6876" transform="translate(4.668701 42.34961)" id="Stroke-19" fill="none" stroke="#5ACED6" stroke-width="1.882" />
  </g>
  <g id="Group-21" transform="translate(52.5 52.5)">
    <path d="M32.1394 67.0337C30.998 44.1079 21.6985 21.5145 4.23948 4.00483C2.85746 2.61876 1.44372 1.28352 0 0" transform="translate(158.8606 23.875)" id="Stroke-1" fill="none" stroke="#FFFFFF" stroke-width="5" stroke-linecap="round" />
    <path d="M0 29.3846C4.05991 26.4285 7.94149 23.1164 11.6025 19.4477C17.5498 13.4879 22.5592 6.94383 26.6298 0" transform="translate(151.5144 144.1685)" id="Stroke-3" fill="none" stroke="#FFFFFF" stroke-width="5" stroke-linecap="round" />
    <path d="M0 0C1.63776 22.1886 10.8826 43.9148 27.7344 60.8817C47.3783 80.6592 73.4437 90.0305 99.1731 88.9948" transform="translate(0 101.9277)" id="Stroke-5" fill="none" stroke="#FFFFFF" stroke-width="5" stroke-linecap="round" />
    <path d="M32.1394 0C17.6831 9.48137 6.35087 23.2554 0 39.4856" transform="translate(16.52881 25.71143)" id="Stroke-7" fill="none" stroke="#FFFFFF" stroke-width="5" stroke-linecap="round" />
    <path d="M62.4423 22.0385C47.3014 8.34224 27.2221 0 5.19415 0C3.44997 0 1.71829 0.0522143 0 0.155304" transform="translate(89.99048 11.01904)" id="Stroke-9" fill="none" stroke="#FFFFFF" stroke-width="1.658" stroke-linecap="round" />
    <path d="M1.69413 34.8942C2.39271 30.5228 2.75481 26.0404 2.75481 21.4743C2.75481 14.0563 1.7979 6.86003 0 0" transform="translate(176.3076 74.37988)" id="Stroke-11" fill="none" stroke="#FFFFFF" stroke-width="1.658" stroke-linecap="round" />
    <path d="M0 6.59774C14.8361 19.0822 34.1521 26.6298 55.273 26.6298C79.8928 26.6298 102.059 16.3747 117.538 0" transform="translate(40.40381 153.3511)" id="Stroke-13" fill="none" stroke="#FFFFFF" stroke-width="1.658" stroke-linecap="round" />
    <path d="M0 0C0 15.3869 4.01122 29.814 11.0192 42.2404" transform="translate(11.01929 95.5)" id="Stroke-15" fill="none" stroke="#FFFFFF" stroke-width="1.658" stroke-linecap="round" />
    <path d="M57.851 1.94615C38.5476 -2.02502 18.2706 0.0813647 0 8.26442" transform="translate(56.0144 0)" id="Stroke-17" fill="none" stroke="#FFFFFF" stroke-width="5" stroke-linecap="round" />
    <path d="M24.7933 0C12.4628 12.4036 4.19838 27.3483 0 43.1586" transform="translate(2.754883 27.54785)" id="Stroke-19" fill="none" stroke="#FFFFFF" stroke-width="1.882" />
  </g>
</svg>