<?xml version="1.0" encoding="utf-8"?>
<svg width="296px" height="296px" viewBox="0 0 296 296" version="1.1" xmlns:xlink="http://www.w3.org/1999/xlink" xmlns="http://www.w3.org/2000/svg">
  <desc>Created with Lunacy</desc>
  <g id="Group-21" transform="translate(2.5 2.5)">
    <path d="M48.8918 101.686C47.1554 66.909 33.0086 32.6362 6.44927 6.07508C4.34689 3.9725 2.19624 1.94703 0 0" transform="translate(242.1082 36.55072)" id="Stroke-1" fill="none" stroke="#FCC876" stroke-width="5" stroke-linecap="round" />
    <path d="M0 44.5169C6.16381 40.0385 12.0569 35.0207 17.615 29.4628C26.6444 20.4338 34.2497 10.5197 40.4297 0" transform="translate(230.8255 219.3044)" id="Stroke-3" fill="none" stroke="#FBD9A4" stroke-width="5" stroke-linecap="round" />
    <path d="M0 0C2.49985 33.6188 16.611 66.537 42.3335 92.2442C72.3175 122.21 112.103 136.409 151.376 134.839" transform="translate(0 156.0435)" id="Stroke-5" fill="none" stroke="#FBD9A4" stroke-width="5" stroke-linecap="round" />
    <path d="M48.8918 0C26.9003 14.6278 9.6612 35.8781 0 60.9179" transform="translate(25.38611 38.42512)" id="Stroke-7" fill="none" stroke="#FCC876" stroke-width="5" stroke-linecap="round" />
    <path d="M94.0226 33.2705C71.2241 12.5939 40.9897 0 7.8211 0C5.1948 0 2.58732 0.0788258 0 0.234456" transform="translate(137.273 17.33816)" id="Stroke-9" fill="none" stroke="#FCC876" stroke-width="1.658" stroke-linecap="round" />
    <path d="M2.60195 52.4831C3.67489 45.9081 4.23102 39.1664 4.23102 32.2987C4.23102 21.1415 2.76134 10.3179 0 0" transform="translate(269.3748 113.401)" id="Stroke-11" fill="none" stroke="#FCC876" stroke-width="1.658" stroke-linecap="round" />
    <path d="M0 10.2167C22.4896 29.5492 51.7702 41.2367 83.7866 41.2367C121.107 41.2367 154.709 25.3565 178.173 0" transform="translate(61.58482 232.4251)" id="Stroke-13" fill="none" stroke="#FBD9A4" stroke-width="1.658" stroke-linecap="round" />
    <path d="M0 0C0 23.2148 6.16071 44.9814 16.9241 63.7295" transform="translate(16.92407 145.7343)" id="Stroke-15" fill="none" stroke="#FBD9A4" stroke-width="1.658" stroke-linecap="round" />
    <path d="M87.9111 2.86906C58.5775 -2.98533 27.7642 0.119949 0 12.1836" transform="translate(86.03069 0)" id="Stroke-17" fill="none" stroke="#FCC876" stroke-width="5" stroke-linecap="round" />
    <path d="M37.609 0C18.9049 18.7195 6.36854 41.2741 0 65.1353" transform="translate(4.701131 42.64251)" id="Stroke-19" fill="none" stroke="#FCC876" stroke-width="1.882" />
  </g>
  <g id="Group-21" transform="translate(52.5 52.5)">
    <path d="M32.3077 67.3846C31.1603 44.3388 21.8121 21.6271 4.26168 4.02579C2.87243 2.63247 1.45127 1.29024 0 0" transform="translate(159.6923 24)" id="Stroke-1" fill="none" stroke="#FFFFFF" stroke-width="5" stroke-linecap="round" />
    <path d="M0 29.5385C4.08117 26.5669 7.98307 23.2374 11.6632 19.5496C17.6417 13.5585 22.6773 6.98019 26.7692 0" transform="translate(152.3077 144.9231)" id="Stroke-3" fill="none" stroke="#FFFFFF" stroke-width="5" stroke-linecap="round" />
    <path d="M0 0C1.64633 22.3048 10.9395 44.1447 27.8796 61.2005C47.6263 81.0815 73.8282 90.5019 99.6923 89.4607" transform="translate(0 102.4615)" id="Stroke-5" fill="none" stroke="#FFFFFF" stroke-width="5" stroke-linecap="round" />
    <path d="M32.3077 0C17.7757 9.53102 6.38413 23.3771 0 39.6923" transform="translate(16.61539 25.84615)" id="Stroke-7" fill="none" stroke="#FFFFFF" stroke-width="5" stroke-linecap="round" />
    <path d="M62.7692 22.1538C47.549 8.38592 27.3646 0 5.22135 0C3.46803 0 1.72728 0.0524877 0 0.156117" transform="translate(90.46154 11.07692)" id="Stroke-9" fill="none" stroke="#FFFFFF" stroke-width="1.658" stroke-linecap="round" />
    <path d="M1.70299 35.0769C2.40523 30.6826 2.76923 26.1768 2.76923 21.5868C2.76923 14.1299 1.80731 6.89595 0 0" transform="translate(177.2308 74.76923)" id="Stroke-11" fill="none" stroke="#FFFFFF" stroke-width="1.658" stroke-linecap="round" />
    <path d="M0 6.63228C14.9138 19.1821 34.3309 26.7692 55.5624 26.7692C80.311 26.7692 102.594 16.4604 118.154 0" transform="translate(40.61538 154.1538)" id="Stroke-13" fill="none" stroke="#FFFFFF" stroke-width="1.658" stroke-linecap="round" />
    <path d="M0 0C0 15.4675 4.03223 29.9701 11.0769 42.4615" transform="translate(11.07692 96)" id="Stroke-15" fill="none" stroke="#FFFFFF" stroke-width="1.658" stroke-linecap="round" />
    <path d="M58.1538 1.95634C38.7494 -2.03563 18.3662 0.0817907 0 8.30769" transform="translate(56.30769 0)" id="Stroke-17" fill="none" stroke="#FFFFFF" stroke-width="5" stroke-linecap="round" />
    <path d="M24.9231 0C12.5281 12.4685 4.22036 27.4915 0 43.3846" transform="translate(2.769231 27.69231)" id="Stroke-19" fill="none" stroke="#FFFFFF" stroke-width="1.882" />
  </g>
</svg>